<?xml version="1.0" encoding="UTF-8"?>
<svg width="700pt" height="700pt" version="1.1" viewBox="0 0 700 700" xmlns="http://www.w3.org/2000/svg">
 <g>
  <path d="m681.19 290.77h-662.4c-5.9492 0-10.762-4.8086-10.762-10.762 0-5.9258 4.8086-10.762 10.762-10.762h662.4c5.9492 0 10.762 4.8086 10.762 10.762-0.003906 5.9531-4.7891 10.762-10.762 10.762z"/>
  <path d="m681.19 21.52h-662.4c-5.9492 0-10.762-4.8086-10.762-10.762 0-5.9492 4.8086-10.762 10.762-10.762h662.4c5.9492 0 10.762 4.8086 10.762 10.762-0.003906 5.9531-4.7891 10.762-10.762 10.762z"/>
  <path d="m681.19 560h-662.4c-5.9492 0-10.762-4.832-10.762-10.762 0-5.9492 4.8086-10.762 10.762-10.762h662.4c5.9492 0 10.762 4.8086 10.762 10.762-0.003906 5.9297-4.7891 10.762-10.762 10.762z"/>
  <path d="m681.19 290.77h-662.4c-5.9492 0-10.762-4.8086-10.762-10.762 0-5.9258 4.8086-10.762 10.762-10.762h662.4c5.9492 0 10.762 4.8086 10.762 10.762-0.003906 5.9531-4.7891 10.762-10.762 10.762z"/>
 </g>
</svg>
